# xmcd
#
# Track frame offsets:
# 150
# 9647
# 28952
# 48491
# 66462
# 81078
# 98153
# 118995
# 136408
# 151665
# 177518
# 202157
# 211265
# 226710
# 252600
# 269574
# 283710
# 295748
# 319580
# 336221
#
# Disc length: 4665 seconds
#
#
# Revision: 3
# Processed by: cddbd v1.5.1PL0 Copyright (c) Steve Scherf et al.
# Submitted via: FreeRIP 2.80 
#
DISCID=35123714
DTITLE=Bill Withers - Just The Two Of Us Bill Withers Best
DYEAR=2003
DGENRE=Soul
TTITLE0=Ain't No Sunshine
TTITLE1=Lovely Day
TTITLE2=Lean On Me
TTITLE3=Just The Two Of Us
TTITLE4=WHO IS HE (AND WHAT IS HE TO YOU)?
TTITLE5=USE ME (US  2_72)
TTITLE6=I DON'T WANT YOU ON MY MIND
TTITLE7=KISSING MY LOVE (US 31_73)
TTITLE8=I WANT TO SPEND THE NIGHT
TTITLE9=YOU TRY TO FIND A LOVE
TTITLE10=HELLO LIKE BEFORE
TTITLE11=GRANDMA'S HANDS (US 42_71)
TTITLE12=THE SAME LOVE THAT MADE ME LAUGH (US 50_74)
TTITLE13=STEPPIN' RIGHT ALONG
TTITLE14=LONELY TOWN, LONELY STREET
TTITLE15=I DON'T KNOW
TTITLE16=TAKE IT ALL IN AND CHECK IT ALL OUT
TTITLE17=WORLD KEEPS GOING AROUND
TTITLE18=BETTER OFF DEAD
TTITLE19=FOR MY FRIEND
EXTD=Zounds
EXTT0=
EXTT1=
EXTT2=
EXTT3=
EXTT4=
EXTT5=
EXTT6=
EXTT7=
EXTT8=
EXTT9=
EXTT10=
EXTT11=
EXTT12=
EXTT13=
EXTT14=
EXTT15=
EXTT16=
EXTT17=
EXTT18=
EXTT19=
PLAYORDER=
